# xmcd
#
# Track frame offsets:
#	150
#	19123
#	35512
#	46978
#	68752
#	84025
#	98738
#	109263
#	118284
#	136829
#	145591
#	162257
#	176135
#	197083
#	215298
#	234144
#	252447
#	269307
#
# Disc length: 3827 seconds
#
# Revision: 0
# Processed by: cddbd v1.5.2PL0 Copyright (c) Steve Scherf et al.
# Submitted via: audiograbber 1.83.01
#
DISCID=f20ef112
DTITLE=Various Artist - Stimmen der DDR 2
DYEAR=1900
DGENRE=DDR
TTITLE0=Perl - Zeit die nie vergeht
TTITLE1=Rockhaus - I.L.D.
TTITLE2=Die Zöllner - Käfer auf'm Blatt
TTITLE3=Ralf Bursy - Himbermond
TTITLE4=IC - Prinz Motorik
TTITLE5=Rosalili - So allein
TTITLE6=Possenspiel - Sommer Sonne Sonnenbrand
TTITLE7=Juckreiz - FKK
TTITLE8=Tinae - Urlaub auf dem Meeresgrund
TTITLE9=Petra Zieger - Rock 'n' Roll am FKK
TTITLE10=Datzu - Ein bunter Clown
TTITLE11=Kerstin Rodgers - Bis es wieder kribbelt
TTITLE12=Amor and Die Kids - Komm doch mit
TTITLE13=Jessica - Ich beobachte dich
TTITLE14=Karussell - Als ich fortging
TTITLE15=Neumis Rock Circus - Der Clown
TTITLE16=Lift - Am Abend mancher Tage
TTITLE17=Klosterbrüder - Lied einer alten Stadt
EXTD=
EXTT0=
EXTT1=
EXTT2=
EXTT3=
EXTT4=
EXTT5=
EXTT6=
EXTT7=
EXTT8=
EXTT9=
EXTT10=
EXTT11=
EXTT12=
EXTT13=
EXTT14=
EXTT15=
EXTT16=
EXTT17=
PLAYORDER=
